# xmcd CD database file
#
# Track frame offsets:
#	150
#	22450
#	44350
#	66250
#	88525
#	110550
#	132850
#	155125
#	177550
#	199375
#	220900
#	243550
#	265750
#	287800
#
# Disc length: 4131 seconds
#
# Revision: 0
# Processed by: cddbd v1.5PL3 Copyright (c) Steve Scherf et al.
# Submitted via: CDex 1.50
#
DISCID=e110210e
DTITLE=Various Artist - NHK名曲アルバム1 名曲紀行／ドイツ・オーストリア編
DYEAR=1999
DGENRE=Classical
TTITLE0=田園交響曲
TTITLE1=喜歌劇「チャールダーシュの女王」から
TTITLE2=円舞曲「わが人生は愛と喜び」
TTITLE3=ビヤ樽ポルカ
TTITLE4=ワルキューレの騎行
TTITLE5=ローレライ
TTITLE6=エリーゼのために
TTITLE7=ワルツ「ウィーンの市民」
TTITLE8=第三の男
TTITLE9=ポルカ「クラプフェンの森で」
TTITLE10=チロルの子守歌
TTITLE11=こうもりのカドリール
TTITLE12=ヨハン大公のヨーデル
TTITLE13=円舞曲「美しく青きドナウ」
EXTD=YEAR: 1999.8
EXTT0=
EXTT1=
EXTT2=
EXTT3=
EXTT4=
EXTT5=
EXTT6=
EXTT7=
EXTT8=
EXTT9=
EXTT10=
EXTT11=
EXTT12=
EXTT13=
PLAYORDER=
